<svg height="512" viewBox="0 0 58 60" width="512" xmlns="http://www.w3.org/2000/svg"><g id="Page-1" fill="none" fill-rule="evenodd"><g id="016---Bag" fill-rule="nonzero"><path id="Shape" d="m48 58c-10 1-18 1-18 1h-2s-8 0-18-1-8.67-10.74-8-13c3.06-10.29 5.14-33.32 5.79-41.25.12039765-1.55537177 1.41998228-2.75465289 2.98-2.75h2.6c.3491546.00102674.6334752.28090484.64.63 0 .17.01.33.01.5v.03c.79 27.79 29.17 27.79 29.96 0v-.03c0-.17.01-.33.01-.5.0065248-.34909516.2908454-.62897326.64-.63h2.6c1.5600177-.00465289 2.8596024 1.19462823 2.98 2.75.65 7.93 2.73 30.96 5.79 41.25.67 2.26 2 12-8 13z" fill="#ff9801"/><path id="Shape" d="m56 45c-3.06-10.29-5.14-33.32-5.79-41.25-.1203976-1.55537177-1.4199823-2.75465289-2.98-2.75h-2.6c-.0438061.00402804-.0870536.01274459-.129.026 1.4479334.12271691 2.5942801 1.27541106 2.709 2.724.65 7.93 2.73 30.96 5.79 41.25.67 2.26 2 12-8 13-8.556.856-15.63.979-17.5 1h.5 2s8 0 18-1 8.67-10.74 8-13z" fill="#f57c00"/><path id="Shape" d="m43.98 2.16c-.79 27.79-29.17 27.79-29.96 0 .8 19.06 29.16 19.06 29.96 0z" fill="#d84315"/><path id="Shape" d="m10.4 55.02c-.0334027.0003044-.0667942-.0013652-.1-.005-3.373-.337-4.382-1.84-4.714-2.333-1.436-2.142-1.1-5.524-.709-6.827.16655189-.5179926.71669022-.807761 1.23806243-.6521112.52137222.1556497.82261667.6995888.67793757 1.2241112-.311 1.044-.506 3.708.453 5.139.2.3.817 1.215 3.253 1.459.5522847.0276143.9776142.4977153.9499999 1.05-.0276142.5522847-.4977152.9776142-1.0499999.95z" fill="#f5f5f5"/><path id="Shape" d="m47.6 55.02c-.5522847.0276142-1.0223858-.3977153-1.05-.95s.3977153-1.0223858.95-1.05c2.436-.244 3.051-1.158 3.252-1.459.96-1.431.765-4.1.454-5.139-.1446791-.5245224.1565654-1.0684615.6779376-1.2241112.5213722-.1556498 1.0715105.1341186 1.2380624.6521112.389 1.3.727 4.685-.709 6.826-.332.494-1.341 2-4.714 2.334-.0327758.0052682-.0658327.0086073-.099.01z" fill="#f5f5f5"/><path id="Shape" d="m9.9 59c9.935.988 18.02 1 18.1 1h2c.08 0 8.165-.012 18.1-1.005 3.482-.348 6.051-1.723 7.637-4.086 2.331-3.475 1.819-8.188 1.221-10.194-3.069-10.315-5.175-34.025-5.746-41.046-.1586386-2.08055783-1.900453-3.68344652-3.987-3.669h-2.6c-.8939747-.00172455-1.6229505.71610486-1.635 1.61l-.014.484v.021c-.385 9.163-7.512 13.338-13.976 13.338s-13.584-4.172-13.976-13.32v-.032l-.014-.485c-.0087924-.89741774-.7405454-1.61934256-1.638-1.616h-2.6c-2.08539508-.01286376-3.8254395 1.58960185-3.984 3.669-.571 7.021-2.677 30.731-5.746 41.046-.6 2.006-1.11 6.719 1.221 10.194 1.586 2.363 4.155 3.738 7.637 4.091zm19.1-41.547c4.5405854.0490341 8.8968028-1.7935908 12.024-5.086-2.63 6.553-7.486 9.633-12.024 9.633s-9.393-3.08-12.023-9.631c3.1275171 3.2911112 7.483134 5.1329107 12.023 5.084zm-26.042 27.832c3.042-10.215 5.086-32.392 5.824-41.454.07986375-1.03927591.95069322-1.83932045 1.993-1.831h2.243v.155.029c.431 14.988 8.582 21.816 15.982 21.816s15.562-6.836 15.978-21.844l.004-.156h2.243c1.0423068-.00832045 1.9131362.79172409 1.993 1.831.738 9.062 2.782 31.239 5.824 41.454.405 1.362 1.021 5.547-.966 8.51-1.237 1.844-3.315 2.924-6.176 3.21-9.83.983-17.821.995-17.9.995h-2c-.079 0-8.063-.011-17.9-.995-2.861-.286-4.939-1.366-6.176-3.21-1.987-2.963-1.371-7.148-.966-8.51z" fill="#000"/></g></g></svg>